<svg width="46" height="42" viewBox="0 0 46 42" fill="none" xmlns="http://www.w3.org/2000/svg">
<path d="M11 35C11 36.1935 11.4636 37.3381 12.2887 38.182C13.1139 39.0259 14.233 39.5 15.4 39.5C16.567 39.5 17.6861 39.0259 18.5113 38.182C19.3364 37.3381 19.8 36.1935 19.8 35C19.8 33.8065 19.3364 32.6619 18.5113 31.818C17.6861 30.9741 16.567 30.5 15.4 30.5C14.233 30.5 13.1139 30.9741 12.2887 31.818C11.4636 32.6619 11 33.8065 11 35ZM35.2 35C35.2 36.1935 35.6636 37.3381 36.4887 38.182C37.3139 39.0259 38.433 39.5 39.6 39.5C40.767 39.5 41.8861 39.0259 42.7113 38.182C43.5364 37.3381 44 36.1935 44 35C44 33.8065 43.5364 32.6619 42.7113 31.818C41.8861 30.9741 40.767 30.5 39.6 30.5C38.433 30.5 37.3139 30.9741 36.4887 31.818C35.6636 32.6619 35.2 33.8065 35.2 35Z" stroke="white" stroke-width="4" stroke-linecap="round" stroke-linejoin="round"/>
<path d="M40 30.5H13.5443L6.81012 5.5H2" stroke="white" stroke-width="4" stroke-linecap="round" stroke-linejoin="round"/>
<path d="M44 8.5L40.7347 24.5H12" stroke="white" stroke-width="4" stroke-linecap="round" stroke-linejoin="round"/>
</svg>
