<svg width="46" height="41" viewBox="0 0 46 41" fill="none" xmlns="http://www.w3.org/2000/svg">
<path d="M11 34.5C11 35.6935 11.4636 36.8381 12.2887 37.682C13.1139 38.5259 14.233 39 15.4 39C16.567 39 17.6861 38.5259 18.5113 37.682C19.3364 36.8381 19.8 35.6935 19.8 34.5C19.8 33.3065 19.3364 32.1619 18.5113 31.318C17.6861 30.4741 16.567 30 15.4 30C14.233 30 13.1139 30.4741 12.2887 31.318C11.4636 32.1619 11 33.3065 11 34.5ZM35.2 34.5C35.2 35.6935 35.6636 36.8381 36.4887 37.682C37.3139 38.5259 38.433 39 39.6 39C40.767 39 41.8861 38.5259 42.7113 37.682C43.5364 36.8381 44 35.6935 44 34.5C44 33.3065 43.5364 32.1619 42.7113 31.318C41.8861 30.4741 40.767 30 39.6 30C38.433 30 37.3139 30.4741 36.4887 31.318C35.6636 32.1619 35.2 33.3065 35.2 34.5Z" stroke="white" stroke-width="4" stroke-linecap="round" stroke-linejoin="round"/>
<path d="M40 30H13.5443L6.81012 5H2" stroke="white" stroke-width="4" stroke-linecap="round" stroke-linejoin="round"/>
<path d="M44 8L40.7347 24H12" stroke="white" stroke-width="4" stroke-linecap="round" stroke-linejoin="round"/>
</svg>
