<svg width="115" height="130" viewBox="0 0 115 130" fill="none" xmlns="http://www.w3.org/2000/svg">
<g clip-path="url(#clip0_6472_1726)">
<path d="M1.58472 55.4458C11.7048 55.4838 21.8248 55.5203 31.9434 55.5583" stroke="white" stroke-width="2.53107" stroke-miterlimit="10"/>
<path d="M1.28247 27.1206V52.271V27.1206Z" fill="black"/>
<path d="M1.28247 27.1206V52.271" stroke="white" stroke-width="2.53107" stroke-miterlimit="10"/>
<path d="M39.7955 36.8862C33.0587 36.7611 26.3204 36.6359 19.5835 36.5122C13.4837 43.0002 7.38381 49.4881 1.28394 55.9775C8.03907 55.8256 14.7928 55.6738 21.5479 55.5219C27.6309 49.311 33.7139 43.1 39.7969 36.8876L39.7955 36.8862Z" fill="white"/>
<path d="M26.9293 105.971H13.4302C6.72151 105.971 1.28394 100.534 1.28394 93.825V48.2939" stroke="white" stroke-width="2.53107" stroke-miterlimit="10"/>
<path d="M13.4302 36.1465H48.3406" stroke="white" stroke-width="2.53107" stroke-miterlimit="10"/>
<path d="M76.8629 102.375C73.9142 99.599 69.8941 96.7023 64.6435 94.7421C61.9282 93.7283 59.3254 93.1279 56.9392 92.7988" stroke="white" stroke-width="2.53107" stroke-miterlimit="10"/>
<path d="M55.8016 106.963C56.2853 104.62 58.8684 91.6909 55.3685 90.2046C54.6907 89.9163 52.5773 89.5451 47.3521 95.6238" stroke="white" stroke-width="2.53107" stroke-miterlimit="10"/>
<path d="M56.9912 67.6724C56.1643 71.7488 54.2154 82.4369 57.0868 83.635C57.8447 83.9513 59.878 83.9991 65.0948 77.3214" stroke="white" stroke-width="2.53107" stroke-miterlimit="10"/>
<path d="M83.7151 82.7659C84.923 88.4931 86.997 92.9239 88.9727 92.9112C91.1213 92.8972 93.4414 87.6269 94.2921 79.8594" stroke="white" stroke-width="2.53107" stroke-miterlimit="10"/>
<path d="M103.986 47.4658C111.135 55.6454 113.486 64.7657 110.028 70.0232C109.342 71.0652 108.19 72.3181 106.157 73.3474" stroke="white" stroke-width="2.53107" stroke-linecap="round" stroke-linejoin="round"/>
<path d="M109.912 70.6465C113.97 84.5364 112.108 96.3199 105.814 99.8564C104.591 100.544 102.795 101.147 100.177 100.986" stroke="white" stroke-width="2.53107" stroke-linecap="round" stroke-linejoin="round"/>
<path d="M104.581 101.027C103.407 110.412 97.2449 117.434 90.0215 118.475C87.4216 118.849 85.0607 118.395 83.1624 117.72" stroke="white" stroke-width="2.53107" stroke-linecap="round" stroke-linejoin="round"/>
<path d="M88.4256 118.606C86.7537 120.389 79.7131 127.491 68.3683 128.315C53.6375 129.384 44.1334 118.959 43.0239 117.699" stroke="white" stroke-width="2.53107" stroke-linecap="round" stroke-linejoin="round"/>
<path d="M52.6266 117.936C50.921 118.133 39.9755 119.212 31.2054 111.222C20.011 101.026 23.023 85.7764 23.1692 85.0986" stroke="white" stroke-width="2.53107" stroke-linecap="round" stroke-linejoin="round"/>
<path d="M87.281 40.5264C86.3009 38.7589 84.3168 35.6977 80.8071 33.1244C79.5725 32.2189 73.3545 27.7726 65.5237 29.242C58.7643 30.5104 53.1721 35.7511 50.7788 42.7397" stroke="white" stroke-width="2.53107" stroke-miterlimit="10" stroke-linecap="round"/>
<path d="M86.9324 36.951C91.6641 35.2228 96.9582 36.3787 100.431 39.8955C103.626 43.1282 104.821 47.8908 103.574 52.3315" stroke="white" stroke-width="2.53107" stroke-miterlimit="10" stroke-linecap="round"/>
<path d="M34.1905 98.1014C25.5187 92.7257 20.5691 83.2272 21.5126 73.6653C22.5701 62.9505 30.5654 56.8506 31.9434 55.834" stroke="white" stroke-width="2.53107" stroke-linecap="round" stroke-linejoin="round"/>
<path d="M54.3209 35.1104C52.2018 35.2172 44.5046 35.8655 38.4764 41.9963C32.3231 48.2564 30.2955 57.8056 33.0712 66.7866" stroke="white" stroke-width="2.53107" stroke-miterlimit="10" stroke-linecap="round"/>
<path d="M51.3386 65.6686C57.0532 63.7169 62.0717 79.8623 77.9935 82.2584C88.7843 83.8825 94.8645 77.7263 97.9383 80.9535C102.196 85.4236 96.5153 103.521 82.8405 109.846C73.5459 114.144 61.993 112.343 54.508 105.931C40.2019 93.6763 44.6861 67.941 51.3386 65.6686Z" stroke="white" stroke-width="2.53107" stroke-linecap="round" stroke-linejoin="round"/>
<path d="M57.1865 92.6372C60.5782 93.1336 64.4282 94.2501 68.2979 96.5055C71.7275 98.5037 74.3401 100.911 76.2989 103.211" stroke="white" stroke-width="2.53107" stroke-miterlimit="10" stroke-linecap="round"/>
<path d="M46.4197 92.8521C47.2113 92.7002 48.7075 92.4415 50.6916 92.3374" stroke="white" stroke-width="2.53107" stroke-miterlimit="10" stroke-linecap="round"/>
<path d="M56.3064 68.3291C54.5923 76.638 54.8637 82.8082 57.0868 83.6364C59.7079 84.6123 64.4804 77.9401 65.2762 76.8124" stroke="white" stroke-width="2.53107" stroke-miterlimit="10" stroke-linecap="round"/>
<path d="M83.9963 82.7575C84.9371 88.4004 87.0449 92.5907 88.9685 92.6048C91.0201 92.6188 93.4639 87.8885 94.1361 80.8086" stroke="white" stroke-width="2.53107" stroke-miterlimit="10" stroke-linecap="round"/>
<path d="M47.3521 95.6222C49.3432 93.4103 53.428 89.2819 55.7271 90.321C59.452 92.007 56.0041 106.153 55.8016 106.963" stroke="white" stroke-width="2.53107" stroke-miterlimit="10" stroke-linecap="round"/>
<path d="M72.7935 112.172C74.6608 104.586 77.8429 99.8306 80.1687 100.123C83.0612 100.486 84.2747 108.604 84.3436 109.085" stroke="white" stroke-width="2.53107" stroke-miterlimit="10" stroke-linecap="round"/>
<path d="M63.2809 50.5259C64.6504 47.4689 67.3263 46.0009 68.2713 45.4933C76.6308 40.9978 89.5182 46.3187 94.3455 55.2829C95.0809 56.6482 98.4894 62.8859 95.7572 68.1787C92.5442 74.4037 82.7391 75.6495 76.0895 73.3575C66.3814 70.0109 59.9623 57.9349 63.2809 50.5259Z" stroke="white" stroke-width="2.53107" stroke-miterlimit="10"/>
<path d="M79.3967 73.7973C83.7806 73.7973 87.3344 67.3708 87.3344 59.4433C87.3344 51.5158 83.7806 45.0894 79.3967 45.0894C75.0128 45.0894 71.459 51.5158 71.459 59.4433C71.459 67.3708 75.0128 73.7973 79.3967 73.7973Z" stroke="white" stroke-width="2.53107" stroke-miterlimit="10"/>
<path d="M77.2073 59.2594C79.2195 59.2594 80.8506 56.7802 80.8506 53.722C80.8506 50.6637 79.2195 48.1846 77.2073 48.1846C75.1951 48.1846 73.564 50.6637 73.564 53.722C73.564 56.7802 75.1951 59.2594 77.2073 59.2594Z" fill="white"/>
<path d="M29.1087 16.5239C22.729 17.9497 16.3493 19.3769 9.96961 20.8028C7.132 26.44 4.29439 32.0787 1.45679 37.7159C7.67055 36.3477 13.8829 34.9782 20.0967 33.61C23.1002 27.9137 26.1052 22.2188 29.1087 16.5225V16.5239Z" fill="white"/>
<path d="M61.1547 9.11035C54.775 10.5362 48.3953 11.9634 42.0156 13.3893C38.6155 19.7099 35.214 26.0319 31.814 32.3526C38.0924 31.2445 44.3709 30.1365 50.6493 29.0284C54.1506 22.3886 57.6533 15.7488 61.1547 9.11035Z" fill="white"/>
<path d="M94.1937 1.94775C87.814 3.37359 81.4343 4.80083 75.0546 6.22666C71.6546 12.5473 68.2531 18.8693 64.853 25.19C71.1315 24.0819 77.4099 22.9739 83.6884 21.8658C87.1897 15.226 90.6924 8.58618 94.1937 1.94775Z" fill="white"/>
<path d="M1.32463 34.4409C1.31057 32.0012 1.29651 29.5615 1.28385 27.1219C1.23886 26.513 1.19948 24.8439 2.23863 23.1509C3.02888 21.8629 4.06943 21.1725 4.60939 20.8645L93.454 1.3542C95.8178 0.83533 98.2209 2.66192 98.8241 5.43343L100.189 11.7133C100.49 13.0998 100.285 14.4595 99.7086 15.538C99.7086 15.538 98.9001 16.9118 97.0032 17.6725C92.5822 19.4429 9.31436 37.0085 1.66914 38.6185" stroke="white" stroke-width="2.53107" stroke-miterlimit="10" stroke-linecap="round"/>
</g>
<defs>
<clipPath id="clip0_6472_1726">
<rect width="114.296" height="129.976" fill="white"/>
</clipPath>
</defs>
</svg>
