<svg width="138" height="137" viewBox="0 0 138 137" fill="none" xmlns="http://www.w3.org/2000/svg">
<g filter="url(#filter0_d_6472_415)">
<path d="M68.7027 112.044C96.0778 112.044 118.27 90.3202 118.27 63.5222C118.27 36.7241 96.0778 15 68.7027 15C41.3276 15 19.1357 36.7241 19.1357 63.5222C19.1357 90.3202 41.3276 112.044 68.7027 112.044Z" fill="#EAA64D" stroke="#DF8A1A" stroke-width="5.73782" stroke-miterlimit="10"/>
<path d="M102.419 44.6519H41.8062C36.5259 44.6519 32.2454 48.8421 32.2454 54.0111V88.3592C32.2454 93.5282 36.5259 97.7185 41.8062 97.7185H102.419C107.699 97.7185 111.979 93.5282 111.979 88.3592V54.0111C111.979 48.8421 107.699 44.6519 102.419 44.6519Z" fill="#0E1423"/>
<path d="M78.0418 49.2261C74.8552 53.8808 71.6697 58.5355 68.4832 63.1903C73.2968 63.2163 78.1093 63.2423 82.9229 63.2694C86.1327 58.58 89.3425 53.8906 92.5523 49.2012C87.7155 49.2098 82.8786 49.2185 78.0418 49.2272V49.2261Z" fill="#C3E8FF"/>
<path d="M32.4802 59.3179C59.6308 59.4165 86.7803 59.5151 113.931 59.6126" stroke="#C1E8FF" stroke-width="5.73782" stroke-miterlimit="10"/>
<path d="M53.0649 37.792H32.2454V56.906C39.1852 52.7866 46.125 48.6671 53.0649 44.5487V37.7931V37.792Z" fill="#0E1422" stroke="#0E1423" stroke-width="2.55014" stroke-miterlimit="10"/>
<path d="M62.1456 45.2129C56.856 45.4523 51.5665 45.6918 46.2769 45.9313C41.7467 49.9207 37.2164 53.9112 32.6873 57.9007C37.8152 57.982 42.9421 58.0621 48.07 58.1434C52.7619 53.8332 57.4537 49.5231 62.1456 45.2129Z" fill="#C1E8FF"/>
<path d="M102.419 44.6519H41.8062C36.5259 44.6519 32.2454 48.8421 32.2454 54.0111V88.3592C32.2454 93.5282 36.5259 97.7185 41.8062 97.7185H102.419C107.699 97.7185 111.979 93.5282 111.979 88.3592V54.0111C111.979 48.8421 107.699 44.6519 102.419 44.6519Z" stroke="#0E1423" stroke-width="2.55014" stroke-miterlimit="10"/>
<path d="M73.6667 44.4111C74.7004 43.3287 78.1316 40.0165 83.5695 39.3999C92.3168 38.4085 98.111 45.3159 98.4973 45.7937C99.3429 45.383 101.948 44.2551 104.992 45.0482C108.583 45.9833 111.329 49.2121 111.98 53.2547C113.096 54.2374 116.54 57.5215 117.39 62.9184C117.954 66.5016 117.122 69.401 116.58 70.8713C117.219 72.0664 120.891 79.2056 117.74 86.8931C116.285 90.4415 113.94 92.732 112.44 93.9607C112.426 94.7647 112.2 101.306 106.776 105.045C104.096 106.893 101.322 107.246 99.8986 107.319C99.1039 108.173 91.4391 116.129 79.9535 114.864C71.0114 113.878 65.7772 107.966 64.6515 106.63C63.2038 106.215 55.0431 103.727 50.9146 95.5697C48.2029 90.2107 48.6345 85.18 48.9323 83.1257C48.3191 81.5492 46.4308 76.1046 48.5825 69.6545C50.5184 63.8524 54.5815 60.6637 56.0503 59.6148C56.3137 58.4381 58.6968 48.5165 67.3599 45.3375C69.6621 44.4924 71.8603 44.3245 73.6678 44.4122L73.6667 44.4111Z" fill="#005EAB"/>
<path d="M67.2878 87.7468C69.8158 87.4034 77.2726 86.7219 84.6828 91.0602C88.705 93.4146 91.222 96.3748 92.6343 98.3608C93.8352 99.0207 95.035 99.6805 96.2359 100.34C95.2309 100.838 87.3149 104.591 78.5842 100.727C69.9974 96.9263 67.5933 88.8423 67.2878 87.7468Z" fill="#004A88"/>
<path d="M86.5733 78.1599C89.4444 79.4839 92.0532 79.4655 95.5641 79.4417C102.813 79.3918 104.972 76.929 106.85 78.3506C109.819 80.5978 108.149 89.5681 103.118 95.1958C100.519 98.1028 97.4889 99.597 95.5021 100.367C94.0876 98.2133 89.7455 92.2227 81.4365 89.1834C75.3323 86.9514 69.9576 87.361 67.2879 87.7478C66.5906 85.6924 65.6951 82.1472 66.1423 77.759C66.4655 74.5833 67.3831 72.0457 68.17 70.3273C68.5674 69.4421 69.6211 67.404 71.4252 67.1169C73.0157 66.8633 74.3727 68.1007 75.6743 69.2719C81.5527 74.5594 84.5345 77.2216 86.5733 78.1621V78.1599Z" fill="#0E1423"/>
<g opacity="0.36">
<mask id="path-11-inside-1_6472_415" fill="white">
<path d="M108.163 102.656C105.222 108.451 99.1347 107.585 99.1347 107.585C85.1886 121.833 67.0919 109.973 65.5977 106.885C59.5318 107.83 44.9553 95.2328 50.7108 84.9395C44.4019 75.3505 49.3853 63.025 55.9129 59.4772C55.9129 46.7461 74.397 43.4956 74.397 43.4956C74.397 43.4956 73.4949 45.0329 71.7041 48.7341C55.0385 64.7342 56.1642 89.1151 69.331 100.374C78.9173 108.572 94.6398 109.6 108.164 102.656H108.163Z"/>
</mask>
<path d="M108.163 102.656C105.222 108.451 99.1347 107.585 99.1347 107.585C85.1886 121.833 67.0919 109.973 65.5977 106.885C59.5318 107.83 44.9553 95.2328 50.7108 84.9395C44.4019 75.3505 49.3853 63.025 55.9129 59.4772C55.9129 46.7461 74.397 43.4956 74.397 43.4956C74.397 43.4956 73.4949 45.0329 71.7041 48.7341C55.0385 64.7342 56.1642 89.1151 69.331 100.374C78.9173 108.572 94.6398 109.6 108.164 102.656H108.163Z" fill="#210847"/>
<path d="M108.21 102.68C108.179 102.664 108.147 102.648 108.116 102.632C106.561 105.972 102.757 107.918 99.1422 107.532L99.1155 107.528L99.0967 107.548C98.8552 107.794 98.6125 108.033 98.3687 108.264C89.6662 117.353 73.8009 115.656 65.6455 106.862L65.6284 106.826L65.5895 106.832C56.3392 105.941 47.1248 95.876 50.1188 86.3227C50.3023 85.8477 50.5076 85.4129 50.7572 84.9655L50.7729 84.9373L50.7552 84.9103C45.3417 76.9109 47.7391 64.6373 55.9383 59.5239L55.966 59.5088V59.4772C55.9995 49.9586 66.261 45.283 74.4062 43.5479L74.3512 43.4687C73.3859 45.1804 72.5154 46.9437 71.6563 48.711L71.6673 48.6958C57.3979 61.5681 54.1109 87.1072 69.2965 100.414C76.7999 106.816 87.4055 108.443 96.9005 106.605C100.824 105.855 104.635 104.528 108.188 102.703L108.164 102.603C108.164 102.603 108.163 102.603 108.163 102.603C108.163 102.638 108.163 102.673 108.163 102.709C108.163 102.709 108.164 102.709 108.164 102.709L108.14 102.608C104.595 104.429 100.794 105.753 96.8805 106.501C87.41 108.335 76.8364 106.708 69.3656 100.333C54.2403 87.085 57.5051 61.612 71.7409 48.7724L71.7519 48.7573C72.6102 46.9917 73.4818 45.2267 74.4428 43.5225L74.501 43.4234L74.3878 43.4433C66.2216 45.1853 55.9046 49.8639 55.8598 59.4772L55.8875 59.4306C47.619 64.5936 45.2243 76.9138 50.6664 84.9687L50.6644 84.9136C50.4124 85.3653 50.2051 85.8045 50.0197 86.2845C47.0207 95.9556 56.2233 106.021 65.6059 106.937L65.5499 106.908C73.7841 115.801 89.6897 117.462 98.4418 108.341C98.6866 108.109 98.9303 107.869 99.1727 107.622L99.1272 107.637C102.79 108.031 106.639 106.055 108.21 102.68ZM108.116 102.632L108.21 102.68L108.163 102.709V102.603H108.13L108.116 102.632Z" fill="black" mask="url(#path-11-inside-1_6472_415)"/>
</g>
<path opacity="0.27" d="M112.804 54.3307C115.571 56.9853 122.378 68.7954 113.665 72.9244C113.823 69.8245 113.792 61.5336 108.052 54.753C100.24 45.527 85.0151 42.828 70.8997 49.0549C78.8799 33.0941 93.7668 40.5161 98.0281 45.8252C102.732 43.4415 110.535 44.3083 112.804 54.3307Z" fill="#D7DDED"/>
<path d="M111.98 53.2549C117.53 59.4709 119.356 66.4021 116.671 70.398C116.139 71.1901 115.245 72.1414 113.665 72.9248" stroke="#0E1423" stroke-width="2.55014" stroke-linecap="round" stroke-linejoin="round"/>
<path d="M116.581 70.8706C119.731 81.4261 118.286 90.3823 113.4 93.0694C112.45 93.5916 111.055 94.0499 109.023 93.9275" stroke="#0E1423" stroke-width="2.55014" stroke-linecap="round" stroke-linejoin="round"/>
<path d="M112.441 93.9609C111.53 101.094 106.745 106.43 101.138 107.221C99.1191 107.506 97.2862 107.159 95.813 106.647" stroke="#0E1423" stroke-width="2.55014" stroke-linecap="round" stroke-linejoin="round"/>
<path d="M99.8995 107.319C98.6023 108.675 93.1357 114.073 84.3275 114.698C72.8906 115.511 65.5125 107.587 64.6514 106.63" stroke="#0E1423" stroke-width="2.55014" stroke-linecap="round" stroke-linejoin="round"/>
<path d="M72.107 106.811C70.7822 106.961 62.285 107.78 55.4758 101.709C46.7849 93.9599 49.1237 82.3696 49.2366 81.855" stroke="#0E1423" stroke-width="2.55014" stroke-linecap="round" stroke-linejoin="round"/>
<path d="M99.0107 47.9805C98.2503 46.638 96.7096 44.3107 93.9846 42.356C93.0261 41.668 88.1992 38.2886 82.1193 39.4057C76.8719 40.37 72.5298 44.3529 70.6714 49.6632" stroke="#0E1423" stroke-width="2.55014" stroke-miterlimit="10" stroke-linecap="round"/>
<path d="M98.7397 45.2628C102.413 43.9485 106.523 44.8283 109.22 47.5013C111.7 49.9587 112.628 53.5776 111.661 56.9516" stroke="#0E1423" stroke-width="2.55014" stroke-miterlimit="10" stroke-linecap="round"/>
<path d="M57.7934 91.7374C51.0616 87.6515 47.2187 80.4332 47.9514 73.1662C48.7727 65.0237 54.9798 60.3874 56.0501 59.6138" stroke="#0E1423" stroke-width="2.55014" stroke-linecap="round" stroke-linejoin="round"/>
<path d="M73.4229 43.8643C71.7781 43.9455 65.8012 44.4374 61.1215 49.0976C56.3433 53.8552 54.7694 61.1125 56.9244 67.9386" stroke="#0E1423" stroke-width="2.55014" stroke-miterlimit="10" stroke-linecap="round"/>
<path d="M75.6479 87.5835C78.2811 87.9606 81.2696 88.8089 84.2746 90.523C86.9365 92.0421 88.9654 93.871 90.4861 95.6187" stroke="#0E1423" stroke-width="2.55014" stroke-miterlimit="10" stroke-linecap="round"/>
<path d="M67.2878 87.7471C67.9021 87.6312 69.0643 87.4351 70.6039 87.356" stroke="#0E1423" stroke-width="2.55014" stroke-miterlimit="10" stroke-linecap="round"/>
<path d="M74.9638 69.1099C73.6334 75.4245 73.8437 80.1139 75.5692 80.7423C77.6047 81.4834 81.3092 76.4137 81.9269 75.5556" fill="#C2E6FB"/>
<path d="M74.9638 69.1099C73.6334 75.4245 73.8437 80.1139 75.5692 80.7423C77.6047 81.4834 81.3092 76.4137 81.9269 75.5556" stroke="#0E1423" stroke-width="0.956303" stroke-miterlimit="10"/>
<path d="M96.4607 80.076C97.1912 84.3645 98.8271 87.5489 100.321 87.5597C101.914 87.5706 103.812 83.9755 104.332 78.5938" fill="#C2E6FB"/>
<path d="M96.4607 80.076C97.1912 84.3645 98.8271 87.5489 100.321 87.5597C101.914 87.5706 103.812 83.9755 104.332 78.5938" stroke="#0E1423" stroke-width="0.956303" stroke-miterlimit="10"/>
<path d="M68.0117 89.8523C69.558 88.1707 72.729 85.0329 74.5132 85.8238C77.4054 87.1045 74.728 97.8561 74.5719 98.4715" fill="#C2E6FB"/>
<path d="M68.0117 89.8523C69.558 88.1707 72.729 85.0329 74.5132 85.8238C77.4054 87.1045 74.728 97.8561 74.5719 98.4715" stroke="#0E1423" stroke-width="1.91261" stroke-linecap="round" stroke-linejoin="round"/>
<path d="M87.7632 102.431C89.2131 96.6653 91.6825 93.0508 93.4899 93.2729C95.7357 93.5492 96.6776 99.7175 96.7307 100.084" fill="#C2E6FB"/>
<path d="M87.7632 102.431C89.2131 96.6653 91.6825 93.0508 93.4899 93.2729C95.7357 93.5492 96.6776 99.7175 96.7307 100.084" stroke="#0E1423" stroke-width="1.91261" stroke-linecap="round" stroke-linejoin="round"/>
<path d="M71.1066 67.0879C75.5427 65.6046 79.4399 77.8753 91.7999 79.6956C100.177 80.9297 104.898 76.2511 107.284 78.7042C110.589 82.1009 106.179 95.8549 95.5631 100.661C88.3477 103.928 79.3779 102.559 73.567 97.686C62.46 88.3722 65.9421 68.814 71.1066 67.0869V67.0879Z" stroke="#0E1423" stroke-width="2.55014" stroke-linecap="round" stroke-linejoin="round"/>
<path d="M80.3785 55.5801C81.4421 53.256 83.5185 52.1422 84.2535 51.7554C90.7439 48.3391 100.749 52.3827 104.496 59.1947C105.067 60.2327 107.714 64.973 105.592 68.995C103.097 73.7255 95.4845 74.6725 90.3233 72.9313C82.7858 70.3883 77.8029 61.21 80.3785 55.5801Z" fill="#C1E8FF" stroke="#0E1423" stroke-width="2.55014" stroke-miterlimit="10"/>
<path d="M92.8899 73.2661C96.2935 73.2661 99.0527 68.3821 99.0527 62.3574C99.0527 56.3327 96.2935 51.4487 92.8899 51.4487C89.4862 51.4487 86.7271 56.3327 86.7271 62.3574C86.7271 68.3821 89.4862 73.2661 92.8899 73.2661Z" fill="#0E1423" stroke="#0E1423" stroke-width="1.59384" stroke-miterlimit="10"/>
<path d="M91.2001 63.3371C93.0199 63.3371 94.4951 61.1416 94.4951 58.4332C94.4951 55.7249 93.0199 53.5293 91.2001 53.5293C89.3803 53.5293 87.905 55.7249 87.905 58.4332C87.905 61.1416 89.3803 63.3371 91.2001 63.3371Z" fill="#C1E8FF" stroke="#0E1423" stroke-width="0.637535" stroke-miterlimit="10"/>
<path d="M34.8275 33.0368L103.803 18.2091C105.638 17.8147 107.504 19.2026 107.973 21.31L109.033 26.0829C109.501 28.1892 108.393 30.2175 106.558 30.6119L37.5824 45.4385C35.7473 45.8329 33.8812 44.445 33.413 42.3375L32.3526 37.5647C31.8844 35.4584 32.9924 33.4301 34.8275 33.0357V33.0368Z" fill="#0E1423"/>
<path d="M53.7135 30.4883C48.7605 31.5729 43.8074 32.6564 38.8554 33.741C37.2206 37.0543 35.5869 40.3666 33.9521 43.6799C34.8221 44.2271 35.691 44.7753 36.561 45.3225C39.9467 44.7071 43.3325 44.0906 46.7172 43.4751C49.0493 39.1465 51.3814 34.818 53.7135 30.4894V30.4883Z" fill="#CCE7FF"/>
<path d="M78.7271 24.1045C73.774 25.1891 68.8209 26.2726 63.869 27.3572C61.2292 32.1614 58.5894 36.9646 55.9485 41.7688C60.823 40.9269 65.6975 40.085 70.5708 39.2421C73.2892 34.1962 76.0076 29.1504 78.7271 24.1045Z" fill="#CCE7FF"/>
<path d="M104.377 18.6606C99.4234 19.7452 94.4704 20.8287 89.5184 21.9133C86.8786 26.7176 84.2388 31.5207 81.5979 36.325C86.4724 35.4831 91.3469 34.6412 96.2203 33.7982C98.9386 28.7524 101.657 23.7065 104.377 18.6606Z" fill="#CCE7FF"/>
<path d="M34.8275 33.0368L103.803 18.2091C105.638 17.8147 107.504 19.2026 107.973 21.31L109.033 26.0829C109.501 28.1892 108.393 30.2175 106.558 30.6119L37.5824 45.4385C35.7473 45.8329 33.8812 44.445 33.413 42.3375L32.3526 37.5647C31.8844 35.4584 32.9924 33.4301 34.8275 33.0357V33.0368Z" stroke="#0E1423" stroke-width="2.55014" stroke-miterlimit="10" stroke-linecap="round"/>
<path d="M50.0487 108.545C31.9173 101.321 19.1357 83.8989 19.1357 63.5543C19.1357 62.7195 19.1568 61.889 19.1999 61.064" stroke="#DF8A1A" stroke-width="5.73782" stroke-miterlimit="10"/>
</g>
<defs>
<filter id="filter0_d_6472_415" x="0.266846" y="0.130859" width="136.872" height="135.901" filterUnits="userSpaceOnUse" color-interpolation-filters="sRGB">
<feFlood flood-opacity="0" result="BackgroundImageFix"/>
<feColorMatrix in="SourceAlpha" type="matrix" values="0 0 0 0 0 0 0 0 0 0 0 0 0 0 0 0 0 0 127 0" result="hardAlpha"/>
<feOffset dy="4"/>
<feGaussianBlur stdDeviation="8"/>
<feComposite in2="hardAlpha" operator="out"/>
<feColorMatrix type="matrix" values="0 0 0 0 0.937255 0 0 0 0 0.588235 0 0 0 0 0.027451 0 0 0 1 0"/>
<feBlend mode="normal" in2="BackgroundImageFix" result="effect1_dropShadow_6472_415"/>
<feBlend mode="normal" in="SourceGraphic" in2="effect1_dropShadow_6472_415" result="shape"/>
</filter>
</defs>
</svg>
