<svg width="36" height="36" viewBox="0 0 36 36" fill="none" xmlns="http://www.w3.org/2000/svg">
<path d="M34.0059 34.0029L23.3392 23.3363M2.00586 14.4474C2.00586 16.0816 2.32774 17.6998 2.95314 19.2097C3.57853 20.7195 4.49518 22.0914 5.65075 23.2469C6.80633 24.4025 8.17819 25.3192 9.68802 25.9445C11.1979 26.5699 12.8161 26.8918 14.4503 26.8918C16.0845 26.8918 17.7028 26.5699 19.2126 25.9445C20.7224 25.3192 22.0943 24.4025 23.2499 23.2469C24.4054 22.0914 25.3221 20.7195 25.9475 19.2097C26.5729 17.6998 26.8947 16.0816 26.8947 14.4474C26.8947 12.8131 26.5729 11.1949 25.9475 9.68509C25.3221 8.17526 24.4054 6.8034 23.2499 5.64782C22.0943 4.49225 20.7224 3.5756 19.2126 2.95021C17.7028 2.32481 16.0845 2.00293 14.4503 2.00293C12.8161 2.00293 11.1979 2.32481 9.68802 2.95021C8.17819 3.5756 6.80633 4.49225 5.65075 5.64782C4.49518 6.8034 3.57853 8.17526 2.95314 9.68509C2.32774 11.1949 2.00586 12.8131 2.00586 14.4474Z" stroke="#0E1423" stroke-width="3.99936" stroke-linecap="round" stroke-linejoin="round"/>
</svg>
